<?xml version="1.0" encoding="utf-8"?>
<!-- Generator: Adobe Illustrator 22.0.1, SVG Export Plug-In . SVG Version: 6.00 Build 0)  -->
<svg version="1.1" id="Layer_1" xmlns="http://www.w3.org/2000/svg" xmlns:xlink="http://www.w3.org/1999/xlink" x="0px" y="0px"
	 viewBox="0 0 72 72" style="enable-background:new 0 0 72 72;" xml:space="preserve">
<style type="text/css">
	.st0{fill:none;stroke:#000000;stroke-width:0.3;stroke-miterlimit:10;}
</style>
<g>
	<g>
		<g>
			<path class="st0" d="M44.4,58.6c0,0.8-0.7,1.5-1.5,1.5H29.1c-0.8,0-1.5-0.7-1.5-1.5l0,0c0-0.8,0.7-1.5,1.5-1.5h13.9
				C43.8,57.1,44.4,57.8,44.4,58.6L44.4,58.6z"/>
			<path class="st0" d="M44.4,62.8c0,0.8-0.7,1.5-1.5,1.5H29.1c-0.8,0-1.5-0.7-1.5-1.5l0,0c0-0.8,0.7-1.5,1.5-1.5h13.9
				C43.8,61.3,44.4,61.9,44.4,62.8L44.4,62.8z"/>
			<path class="st0" d="M40.8,66.6c0,0.8-0.7,1.5-1.5,1.5h-6.6c-0.8,0-1.5-0.7-1.5-1.5l0,0c0-0.8,0.7-1.5,1.5-1.5h6.6
				C40.1,65.1,40.8,65.7,40.8,66.6L40.8,66.6z"/>
		</g>
		<path class="st0" d="M36,14C36,14,36,14,36,14c-9.6,0-17.3,7.6-17.3,17c0,4.8,2,10.1,5.4,14.1l0.1,0.2c0.4,0.6,4.3,5.6,4.3,9.1
			c0,0.7,0.5,1.2,1.1,1.3l13-0.1c0.5-0.2,0.8-0.7,0.8-1.3c0-3.1,3.1-7.7,4.3-9.1c0.1-0.1,0.1-0.1,0.1-0.2l0.1-0.2
			c3.3-4,5.3-9.2,5.3-13.9C53.3,21.6,45.6,14,36,14z"/>
	</g>
	<path class="st0" d="M32.9,18.7c0,0-1.9,0.4-3.9,1.5c-2.7,1.4-4.4,3.4-5.2,5.8c-1.9,6,1.3,11.1,1.4,11.2"/>
	<g>
		<path class="st0" d="M34,55.8c0,0,0-8,0-11.1c0-4.5-3.9-4.5-4.5-2.4c0,0-0.6,3,2,3c3,0,4.4,0,4.4,0"/>
		<path class="st0" d="M37.6,55.8c0,0,0-8,0-11.1c0-4.5,3.9-4.5,4.5-2.4c0,0,0.6,3-2,3c-3,0-4.4,0-4.4,0"/>
	</g>
	<line class="st0" x1="42.7" y1="10.6" x2="44.9" y2="3.9"/>
	<line class="st0" x1="53.3" y1="18.6" x2="59.1" y2="14.6"/>
	<line class="st0" x1="57" y1="31.4" x2="64" y2="31.7"/>
	<line class="st0" x1="29.3" y1="10.6" x2="27.1" y2="3.9"/>
	<line class="st0" x1="18.7" y1="18.6" x2="12.9" y2="14.6"/>
	<line class="st0" x1="15" y1="31.4" x2="8" y2="31.7"/>
</g>
</svg>
