<?xml version="1.0" encoding="utf-8"?>
<!-- Generator: Adobe Illustrator 22.0.1, SVG Export Plug-In . SVG Version: 6.00 Build 0)  -->
<svg version="1.1" id="Layer_1" xmlns="http://www.w3.org/2000/svg" xmlns:xlink="http://www.w3.org/1999/xlink" x="0px" y="0px"
	 viewBox="0 0 72 72" style="enable-background:new 0 0 72 72;" xml:space="preserve">
<style type="text/css">
	.st0{fill:none;stroke:#000000;stroke-width:0.3;stroke-miterlimit:10;}
	.st1{fill:none;stroke:#000000;stroke-width:0.3;stroke-linejoin:round;stroke-miterlimit:10;}
</style>
<g>
	<polygon class="st0" points="29.7,50.6 28.4,58.4 43.6,58.4 42.1,50.6 	"/>
	<rect x="23.1" y="59.6" class="st0" width="25.7" height="0.6"/>
	<polygon class="st1" points="28.4,58.4 23.1,59.6 48.9,59.6 43.6,58.4 	"/>
	<path class="st0" d="M65.6,44.9H6.4V13.3c0-0.9,0.7-1.6,1.6-1.6h56.1c0.9,0,1.6,0.7,1.6,1.6V44.9z"/>
	<path class="st0" d="M63.1,50.6H8.9c-1.4,0-2.5-1.1-2.5-2.5v-3.1h59.3v3.1C65.6,49.5,64.5,50.6,63.1,50.6z"/>
	<rect x="8.5" y="13.6" class="st0" width="54.9" height="29.2"/>
	<rect x="8.5" y="13.6" class="st0" width="54.9" height="4.9"/>
	<path class="st0" d="M37.2,47.5c0,0.6-0.5,1.2-1.2,1.2c-0.6,0-1.2-0.5-1.2-1.2c0-0.6,0.5-1.2,1.2-1.2
		C36.6,46.4,37.2,46.9,37.2,47.5z"/>
	<g>
		<path class="st0" d="M33.1,40.5c0,0.3-0.3,0.6-0.6,0.6c-0.3,0-0.6-0.3-0.6-0.6s0.3-0.6,0.6-0.6C32.8,39.9,33.1,40.2,33.1,40.5z"/>
		<path class="st0" d="M36.6,40.5c0,0.3-0.3,0.6-0.6,0.6c-0.3,0-0.6-0.3-0.6-0.6s0.3-0.6,0.6-0.6C36.3,39.9,36.6,40.2,36.6,40.5z"/>
		<path class="st0" d="M40.1,40.5c0,0.3-0.3,0.6-0.6,0.6c-0.3,0-0.6-0.3-0.6-0.6s0.3-0.6,0.6-0.6C39.8,39.9,40.1,40.2,40.1,40.5z"/>
	</g>
	<path class="st0" d="M15.2,17.1h-3.4c-0.6,0-1-0.4-1-1v0c0-0.6,0.4-1,1-1h3.4c0.6,0,1,0.4,1,1v0C16.2,16.6,15.8,17.1,15.2,17.1z"/>
	<path class="st0" d="M39.2,37.9h-6.3c-0.7,0-1.4-0.6-1.4-1.4l0,0c0-0.7,0.6-1.4,1.4-1.4h6.3c0.7,0,1.4,0.6,1.4,1.4l0,0
		C40.5,37.3,39.9,37.9,39.2,37.9z"/>
	<path class="st0" d="M54.3,17.1h-0.7c-0.3,0-0.6-0.3-0.6-0.6v-0.7c0-0.3,0.3-0.6,0.6-0.6h0.7c0.3,0,0.6,0.3,0.6,0.6v0.7
		C54.9,16.8,54.6,17.1,54.3,17.1z"/>
	<path class="st0" d="M57.1,17.1h-0.7c-0.3,0-0.6-0.3-0.6-0.6v-0.7c0-0.3,0.3-0.6,0.6-0.6h0.7c0.3,0,0.6,0.3,0.6,0.6v0.7
		C57.7,16.8,57.4,17.1,57.1,17.1z"/>
	<path class="st0" d="M59.9,17.1h-0.7c-0.3,0-0.6-0.3-0.6-0.6v-0.7c0-0.3,0.3-0.6,0.6-0.6h0.7c0.3,0,0.6,0.3,0.6,0.6v0.7
		C60.5,16.8,60.3,17.1,59.9,17.1z"/>
	<g>
		<line class="st0" x1="33.3" y1="16.1" x2="38.5" y2="16.1"/>
		<line class="st0" x1="39.7" y1="16.1" x2="45" y2="16.1"/>
		<line class="st0" x1="46.1" y1="16.1" x2="51.4" y2="16.1"/>
	</g>
	<circle class="st0" cx="36" cy="25.3" r="4.1"/>
	<polyline class="st0" points="32.2,26.8 34.5,24.5 35.5,25.6 37.5,23.7 40,26.2 	"/>
	<circle class="st0" cx="35.6" cy="22.8" r="0.7"/>
	<line class="st0" x1="22.8" y1="31.2" x2="49.2" y2="31.2"/>
	<line class="st0" x1="28.8" y1="33.3" x2="43.2" y2="33.3"/>
</g>
</svg>
