<?xml version="1.0" encoding="utf-8"?>
<!-- Generator: Adobe Illustrator 22.0.1, SVG Export Plug-In . SVG Version: 6.00 Build 0)  -->
<svg version="1.1" id="Layer_1" xmlns="http://www.w3.org/2000/svg" xmlns:xlink="http://www.w3.org/1999/xlink" x="0px" y="0px"
	 viewBox="0 0 72 72" style="enable-background:new 0 0 72 72;" xml:space="preserve">
<style type="text/css">
	.st0{fill:none;stroke:#000000;stroke-width:0.3;stroke-miterlimit:10;}
	.st1{fill:none;stroke:#000000;stroke-width:0.3;stroke-linecap:round;stroke-miterlimit:10;}
</style>
<path class="st0" d="M10.3,68l1.2-7.6l0.1-0.9c0.6-3.9,3.4-7.1,7.1-8.3l5.7-1.9l0.6-0.2c0.5-0.2,0.9-0.3,1.3-0.6
	c1.3,1.2,4.7,2.5,8.6,3.1l1.1,4.9l1-5c0,0,4-0.4,7.7-3.4c0.6,0.4,1.2,0.7,1.8,0.9c0.1,0,0.1,0,0.2,0.1l6.3,2.1
	c2.7,0.9,4.9,2.8,6.1,5.3c0.5,1,0.8,2,1,3.1l1.3,8.5"/>
<path class="st0" d="M33.2,21.3c-0.7-1.6-2.4-2.6-4.1-2.4s-3.2,1.6-3.5,3.3C27.5,20.5,30.5,20.1,33.2,21.3z"/>
<path class="st0" d="M38.8,21.3c0.7-1.5,2.5-2.5,4.2-2.3s3.2,1.6,3.5,3.3C44.8,20.6,42.1,20.1,38.8,21.3z"/>
<g>
	<circle cx="31.5" cy="24.5" r="0.8"/>
	<circle cx="40.5" cy="24.5" r="0.8"/>
</g>
<line class="st1" x1="36" y1="25.8" x2="36" y2="29.9"/>
<path class="st0" d="M36.1,31.2c-1.1-0.9-2.8-1-4.1-0.4s-2.1,2.2-2,3.6c0.3-0.7,1-1.1,1.7-1.2c0.7-0.1,1.5,0,2.2,0
	c0.7,0,1.5-0.1,2.1-0.6C36,32.3,36,31.8,36.1,31.2z"/>
<path class="st0" d="M36,31.2c1.1-0.9,2.8-1,4.1-0.4s2.1,2.2,2,3.6c-0.3-0.7-1-1.1-1.7-1.2c-0.7-0.1-1.5,0-2.2,0s-1.5-0.1-2.1-0.6"
	/>
<path class="st0" d="M49.1,27.4c-1.3-3.9-2.3-7.9-3-12.2c-5.1-2.3-10.5,3.3-15.7,1.7c1.1-0.4,2-1,2.8-1.9c-2.7,1-5.7,1.3-8.2,0.9
	c-0.6,3.8-0.9,9.3-1.9,12.9c-1-3.8-1.7-9.5-1.3-13.4c-1.7-1.6-2.3-3.7-1.8-5.5c0.3,0.6,0.9,1.1,1.6,1.2c-0.5-0.7-0.7-1.7-0.5-2.5
	c0.1,0,0.1,0.1,0.2,0.1c0,0,0,0,0,0c4.9,2.8,15-11.4,24.5-0.4c0.5,0.6,1,1.2,1.4,1.9C53.6,10.1,49.9,23.2,49.1,27.4z"/>
<path class="st0" d="M23.2,28.6c1.5,7.6,6.7,13.9,12.8,13.9c6.5,0,11.9-7,13.1-15.2"/>
<g>
	<path class="st0" d="M48.6,29.5c0.6,0,1.3,0,2-0.2c2.3-0.7,3.7-2.7,3.2-4.5c-0.4-1.4-2-2.1-3.7-2.1"/>
</g>
<path class="st0" d="M31.1,41.1l0,0.5c-0.1,0.7-0.2,1.4-0.4,2.1c-0.7,2.1-2.2,3.8-4.2,4.8"/>
<path class="st0" d="M44.9,48.2c-0.9-0.6-1.7-1.3-2.3-2.2c-0.9-1.3-1.5-2.8-1.6-4.4l0-0.5"/>
<g>
	<path class="st0" d="M22,22.7c-1.8-0.1-3.4,0.6-3.9,2c-0.5,1.7,0.9,3.7,3.2,4.5c0.7,0.2,1.4,0.3,2,0.2"/>
</g>
<path class="st0" d="M31.8,33.3c0.4,1.9,2.1,3.2,4.3,3.2c2.7,0,4-1.7,4.2-3.2c0,0,0,0,0,0"/>
</svg>
