<svg xmlns="http://www.w3.org/2000/svg" width="9.269" height="124.59" viewBox="0 0 9.269 124.59">
  <g id="menu" transform="translate(-1840.9 -3831.5)">
    <path id="Path_12" data-name="Path 12" d="M8.021-9.1,5.265-4.55,2.522-9.1H.91V0H2.4V-6.5L5.174-1.911h.182L8.125-6.487V0H9.62V-9.1ZM18.265-3.887h3.64V-5.3h-3.64V-7.67H22.23V-9.1H16.77V0H22.3V-1.43h-4.03Zm16.185.962L30.16-9.1H28.99V0h1.5V-6.175L34.775,0h1.17V-9.1h-1.5ZM43-3.016a3,3,0,0,0,.962,2.327,3.583,3.583,0,0,0,2.483.858,3.583,3.583,0,0,0,2.483-.858,3,3,0,0,0,.962-2.327V-9.1H48.4v5.993a1.714,1.714,0,0,1-1.95,1.82,1.714,1.714,0,0,1-1.95-1.82V-9.1H43Z" transform="translate(1850 3957) rotate(-90)" fill="#fff"/>
    <line id="Line_1" data-name="Line 1" y1="55" transform="translate(1845.5 3831.5)" fill="none" stroke="#fff" stroke-width="1"/>
  </g>
</svg>
